<svg xmlns="http://www.w3.org/2000/svg" viewBox="0 0 107.62 134.1">
    <defs><style>.a{fill:#fff;}</style></defs>
        <path class="a" d="M351.08,412.83a63,63,0,0,0-11.25-29.4,3.13,3.13,0,0,0-5.08,3.65,56.8,56.8,0,0,1,10.14,26.6c.07.48.12,1,.17,1.44a3.13,3.13,0,0,0,3.1,2.8l.34,0a3.13,3.13,0,0,0,2.78-3.44C351.21,413.88,351.15,413.3,351.08,412.83Z" transform="translate(-243.68 -353.58)"/>
        <path class="a" d="M246.89,414.67A3.14,3.14,0,0,0,250,412a56.56,56.56,0,0,1,9.1-23.7l.29-.42c.15-.21.3-.43.48-.66A3.13,3.13,0,0,0,255,383.3c-.28.35-.51.68-.74,1l-.27.39a63.13,63.13,0,0,0-10.17,26.4,3.13,3.13,0,0,0,2.65,3.54A3.4,3.4,0,0,0,246.89,414.67Z" transform="translate(-243.68 -353.58)"/>
        <path class="a" d="M346.88,421c-1.63,0-4.78-.2-6.94-2.56s-2.88-5.75-3.3-10.1a38.23,38.23,0,0,0-2.43-9.37,49.84,49.84,0,0,0-3.73-8,39.9,39.9,0,0,0-14.93-14.9,34.8,34.8,0,0,0-6.18-2.54l-1.68-.57c-9.81-3.47-20-2.06-29.36,4.08-11.15,7.28-19.54,20.39-20.4,31.89-1.17,15.7-7.13,19.6-9.63,20.54a3.13,3.13,0,0,0,1.1,6.05,3,3,0,0,0,1.1-.2c4.51-1.7,12.27-7.33,13.66-25.93.61-8.17,6.84-20.11,17.58-27.12,5.37-3.51,13.87-6.95,23.87-3.42q.88.32,1.77.6a30.74,30.74,0,0,1,5.13,2.08,33.74,33.74,0,0,1,12.57,12.59,43.24,43.24,0,0,1,3.25,7,32.58,32.58,0,0,1,2.09,7.83c.46,4.85,1.38,9.87,4.9,13.72a15,15,0,0,0,11.78,4.59,3.13,3.13,0,0,0-.22-6.25Z" transform="translate(-243.68 -353.58)"/>
        <path class="a" d="M344.84,432.89c-8.32-.45-18.14-3.45-20.27-22.86-.78-7.17-3.51-13.22-7.9-17.49-5.79-5.64-15.17-8.86-22.83-7.86-10.69,1.4-18.31,10.82-21.88,19.15a54.09,54.09,0,0,0-3.24,13c-.21,1.3-.42,2.59-.66,3.87-1.66,8.91-7.25,15.88-16.6,20.75a3.12,3.12,0,1,0,2.88,5.54c11.15-5.79,17.83-14.25,19.86-25.14.25-1.33.47-2.68.68-4,.67-4.11,1.29-8,2.82-11.56,2.89-6.75,8.86-14.35,16.95-15.42,5.7-.75,13.29,1.9,17.66,6.14,4.21,4.11,5.61,9.71,6,13.7,2,18.28,10.56,27.58,26.14,28.42a3.12,3.12,0,0,0,.35-6.24Z" transform="translate(-243.68 -353.58)"/>
        <path class="a" d="M300.46,409.18a3.12,3.12,0,0,0-3.07-3.17,3.22,3.22,0,0,0-3.18,3.07c-.54,34.59-20.38,46.7-28.85,51.87l-1.53.94a3.13,3.13,0,0,0,3.34,5.29l1.44-.89C277.16,461.07,299.86,447.22,300.46,409.18Z" transform="translate(-243.68 -353.58)"/>
        <path class="a" d="M306.72,468.7a3.13,3.13,0,0,0,4,4.82l2.08-1.74a94.75,94.75,0,0,0,7.89-7.31,3.12,3.12,0,0,0-4.58-4.25,88.66,88.66,0,0,1-7.35,6.79Z" transform="translate(-243.68 -353.58)"/>
        <path class="a" d="M341,444.71a34.05,34.05,0,0,1-22.06-13,3.13,3.13,0,0,0-5.22,3.44,39.86,39.86,0,0,0,26.37,15.76l.46,0a3.12,3.12,0,0,0,.45-6.21Z" transform="translate(-243.68 -353.58)"/>
        <path class="a" d="M334.91,455.87a55.79,55.79,0,0,1-21.38-12,3.13,3.13,0,1,0-4.36,4.48,61.35,61.35,0,0,0,24.09,13.57,3.32,3.32,0,0,0,.83.11,3.13,3.13,0,0,0,.82-6.14Z" transform="translate(-243.68 -353.58)"/>
        <path class="a" d="M337.43,378.06c2.44.34,5,.61,7.53.78l.05,3.85a3.13,3.13,0,0,0,6.25,0l-.11-6.84a3.13,3.13,0,0,0-3-3.09c-3.38-.14-6.69-.44-9.84-.89a3.13,3.13,0,0,0-.89,6.19Z" transform="translate(-243.68 -353.58)"/>
        <path class="a" d="M246.8,385.81a3.13,3.13,0,0,0,3.13-3.12l.06-3.85c18.64-1.29,34.22-7.21,47.48-18a77,77,0,0,0,26.77,14.35,3.12,3.12,0,1,0,1.82-6,71.41,71.41,0,0,1-26.54-14.83,3.11,3.11,0,0,0-4.1,0c-13.45,11.72-28.9,17.57-48.64,18.41a3.12,3.12,0,0,0-3,3.08l-.11,6.84A3.12,3.12,0,0,0,246.8,385.81Z" transform="translate(-243.68 -353.58)"/>
        <path class="a" d="M319.3,469.48a84.41,84.41,0,0,1-21.83,11.74c-1.68-.63-3.28-1.32-4.87-2,5.93-5.11,14.4-12.87,16.82-17.44a3.13,3.13,0,0,0-5.53-2.92c-1.89,3.58-10.25,11.32-17.47,17.42-1.35-.71-2.64-1.46-3.91-2.22a68,68,0,0,0,14.57-13.8c5.51-6.9,8.54-15.16,10.95-22.36a88.18,88.18,0,0,0,3.91-16c.61-4.44,1.43-15.48-4.19-21.91a13.38,13.38,0,0,0-10.41-4.5h0c-13.7,0-15.46,16.5-16.4,25.36-.14,1.32-.27,2.51-.43,3.57-1.52,12.7-17.32,23.53-24,27.6a3.12,3.12,0,1,0,3.23,5.35c9.33-5.65,25.23-17.34,27-32.11.16-1,.3-2.32.45-3.74,1.07-10,2.74-19.77,10.19-19.77a7.1,7.1,0,0,1,5.7,2.35c3.21,3.68,3.5,11.17,2.71,16.95a82.66,82.66,0,0,1-3.65,14.83c-2.24,6.7-5,14.35-9.91,20.44a59.33,59.33,0,0,1-15.4,14c-.39-.29-.81-.55-1.19-.84a3.13,3.13,0,0,0-3.79,5c.8.61,1.68,1.17,2.52,1.76a3.09,3.09,0,0,0,.93.64,86.07,86.07,0,0,0,9.63,5.64A2.94,2.94,0,0,0,286,483a107.8,107.8,0,0,0,10.37,4.46,3.06,3.06,0,0,0,1.07.19,3,3,0,0,0,1.07-.19,91.55,91.55,0,0,0,24.58-13.06,3.13,3.13,0,1,0-3.82-4.95Z" transform="translate(-243.68 -353.58)"/>
</svg>